<svg width="29" height="29" viewBox="0 0 29 29" fill="none" xmlns="http://www.w3.org/2000/svg">
<path d="M11.3281 0.226562C10.4445 0.226562 9.69689 0.792969 9.40235 1.58594H5.43751C5.14298 1.58594 4.87102 1.78967 4.78039 2.0842L2.67362 9.28906H0.90626C0.702354 9.28906 0.521281 9.37969 0.408 9.51563C0.294719 9.65156 0.203917 9.85556 0.226573 10.0595L2.24307 26.1905C2.42432 27.6632 3.69316 28.7734 5.16581 28.7734H23.8116C25.2843 28.7734 26.5531 27.6632 26.7344 26.1905L28.7509 10.0595C28.7962 9.85556 28.728 9.67422 28.592 9.51563C28.4561 9.37969 28.275 9.28906 28.0938 9.28906H26.3264L24.1971 2.0842C24.1291 1.78967 23.857 1.58594 23.5625 1.58594H19.5977C19.3258 0.792969 18.5555 0.226562 17.6719 0.226562H11.3281ZM11.3281 1.58594H17.6719C18.057 1.58594 18.3516 1.88047 18.3516 2.26563C18.3516 2.65078 18.057 2.94531 17.6719 2.94531H11.3281C10.943 2.94531 10.6484 2.65078 10.6484 2.26563C10.6484 1.88047 10.943 1.58594 11.3281 1.58594ZM5.93577 2.94531H9.40235C9.67423 3.73828 10.4445 4.30469 11.3281 4.30469H17.6719C18.5555 4.30469 19.3031 3.73828 19.5977 2.94531H23.0642L24.9219 9.28906H4.07814L5.93577 2.94531ZM1.67666 10.6484H27.3234L25.3976 26.0321C25.3069 26.8251 24.6272 27.4141 23.8342 27.4141H5.16581C4.37284 27.4141 3.69307 26.8251 3.60244 26.0321L1.67666 10.6484ZM12.2344 13.8203C11.8492 13.8203 11.5547 14.1148 11.5547 14.5V23.5625C11.5547 23.9477 11.8492 24.2422 12.2344 24.2422C12.6195 24.2422 12.9141 23.9477 12.9141 23.5625V14.5C12.9141 14.1148 12.6195 13.8203 12.2344 13.8203ZM16.7656 13.8203C16.3805 13.8203 16.0859 14.1148 16.0859 14.5V23.5625C16.0859 23.9477 16.3805 24.2422 16.7656 24.2422C17.1508 24.2422 17.4453 23.9477 17.4453 23.5625V14.5C17.4453 14.1148 17.1508 13.8203 16.7656 13.8203ZM6.6367 13.8402C6.59262 13.8364 6.54749 13.8372 6.50218 13.8429C6.13968 13.8882 5.86789 14.2282 5.9132 14.5907L7.02345 23.6532C7.06876 23.9931 7.36329 24.2422 7.70314 24.2422H7.79385C8.15635 24.1969 8.42813 23.8569 8.38282 23.4944L7.25001 14.4319C7.21036 14.1147 6.94521 13.8669 6.6367 13.8402ZM22.3859 13.8402C22.0774 13.8669 21.8122 14.1147 21.7726 14.4319L20.6398 23.4944C20.5718 23.8569 20.8437 24.1969 21.2062 24.2422H21.2969C21.6367 24.2422 21.9313 23.9931 21.9766 23.6532L23.1094 14.5907C23.1547 14.2282 22.8829 13.8882 22.5204 13.8429C22.4751 13.8372 22.43 13.8364 22.3859 13.8402Z" fill="white"/>
</svg>
