<svg width="14" height="14" viewBox="0 0 14 14" fill="none" xmlns="http://www.w3.org/2000/svg">
<path d="M10.5409 13.6285C9.68377 13.5143 8.99805 12.7714 8.94091 11.8571C8.94091 11.6285 8.94091 11.4 9.05519 11.1143L9.11234 11L5.96948 10.9428V11.1143C6.14091 11.6285 6.14091 12.1428 5.91234 12.6C5.68377 13.0571 5.28377 13.4571 4.76948 13.6285C4.54091 13.6857 4.31234 13.7428 4.14091 13.7428C3.28377 13.7428 2.54091 13.2285 2.25519 12.4285C2.08377 11.9714 2.08377 11.5143 2.25519 11.0571L2.31234 10.9428L2.19805 10.8857C1.68377 10.7714 1.28377 10.4285 0.998051 9.97139C0.712337 9.51425 0.655194 8.99997 0.76948 8.48568C0.998051 7.62854 1.79805 6.99997 2.71234 6.99997H2.99805V1.28568H1.56948C1.28377 1.28568 0.998051 1.05711 0.998051 0.714251C0.998051 0.371394 1.22662 0.142822 1.56948 0.142822H3.56948C3.85519 0.142822 4.14091 0.371394 4.14091 0.714251V1.85711H13.2838C13.5695 1.85711 13.8552 2.14282 13.8552 2.42854C13.8552 2.48568 13.8552 2.59997 13.7981 2.65711L11.2266 7.85711C11.1123 8.02854 10.9409 8.14282 10.7695 8.14282H2.76948C2.31234 8.14282 1.91234 8.54282 1.91234 8.99997C1.91234 9.45711 2.31234 9.85711 2.76948 9.85711H10.7695C11.6266 9.85711 12.4838 10.4285 12.6552 11.2857C12.9981 12.6 11.8552 13.8 10.5409 13.6285ZM10.8266 11C10.3695 11 10.0266 11.3428 10.0266 11.8C10.0266 12.2571 10.3695 12.6 10.8266 12.6C11.2838 12.6 11.6266 12.2571 11.6266 11.8C11.6266 11.3428 11.2838 11 10.8266 11ZM4.08377 11C3.62662 11 3.28377 11.3428 3.28377 11.8C3.28377 12.2571 3.62662 12.6 4.08377 12.6C4.54091 12.6 4.88377 12.2571 4.88377 11.8C4.88377 11.3428 4.54091 11 4.08377 11ZM4.14091 6.99997H10.3123L12.3695 2.99997L4.14091 2.94282V6.99997Z" fill="#262626"/>
</svg>
