<svg xmlns="http://www.w3.org/2000/svg" width="16" height="16" fill="none" viewBox="0 0 16 16"><path fill="#262626" d="M6.25003 0.125C5.76253 0.125 5.35003 0.4375 5.18753 0.875H3.00003C2.83753 0.875 2.68748 0.987402 2.63748 1.1499L1.47513 5.125H0.500033C0.387533 5.125 0.287631 5.175 0.225131 5.25C0.162631 5.325 0.112533 5.43755 0.125033 5.55005L1.23758 14.45C1.33758 15.2625 2.03763 15.875 2.85013 15.875H13.1375C13.95 15.875 14.65 15.2625 14.75 14.45L15.8626 5.55005C15.8876 5.43755 15.8499 5.3375 15.7749 5.25C15.6999 5.175 15.6 5.125 15.5 5.125H14.5249L13.3501 1.1499C13.3126 0.987402 13.1625 0.875 13 0.875H10.8125C10.6625 0.4375 10.2375 0.125 9.75003 0.125H6.25003ZM6.25003 0.875H9.75003C9.96253 0.875 10.125 1.0375 10.125 1.25C10.125 1.4625 9.96253 1.625 9.75003 1.625H6.25003C6.03753 1.625 5.87503 1.4625 5.87503 1.25C5.87503 1.0375 6.03753 0.875 6.25003 0.875ZM3.27494 1.625H5.18753C5.33753 2.0625 5.76253 2.375 6.25003 2.375H9.75003C10.2375 2.375 10.65 2.0625 10.8125 1.625H12.7251L13.75 5.125H2.25003L3.27494 1.625ZM0.925082 5.875H15.075L14.0125 14.3626C13.9625 14.8001 13.5874 15.125 13.1499 15.125H2.85013C2.41263 15.125 2.03758 14.8001 1.98758 14.3626L0.925082 5.875ZM6.75003 7.625C6.53753 7.625 6.37503 7.7875 6.37503 8V13C6.37503 13.2125 6.53753 13.375 6.75003 13.375C6.96253 13.375 7.12503 13.2125 7.12503 13V8C7.12503 7.7875 6.96253 7.625 6.75003 7.625ZM9.25003 7.625C9.03753 7.625 8.87503 7.7875 8.87503 8V13C8.87503 13.2125 9.03753 13.375 9.25003 13.375C9.46253 13.375 9.62503 13.2125 9.62503 13V8C9.62503 7.7875 9.46253 7.625 9.25003 7.625ZM3.66165 7.63599C3.63734 7.63389 3.61244 7.63433 3.58744 7.63745C3.38744 7.66245 3.23748 7.85005 3.26248 8.05005L3.87503 13.0501C3.90003 13.2376 4.06253 13.375 4.25003 13.375H4.30008C4.50008 13.35 4.65003 13.1624 4.62503 12.9624L4.00003 7.9624C3.97816 7.7874 3.83187 7.65068 3.66165 7.63599ZM12.3509 7.63599C12.1806 7.65068 12.0344 7.7874 12.0125 7.9624L11.3875 12.9624C11.35 13.1624 11.5 13.35 11.7 13.375H11.75C11.9375 13.375 12.1 13.2376 12.125 13.0501L12.75 8.05005C12.775 7.85005 12.6251 7.66245 12.4251 7.63745C12.4001 7.63433 12.3752 7.63389 12.3509 7.63599Z"/></svg>