<svg width="9" height="8" viewBox="0 0 9 8" fill="none" xmlns="http://www.w3.org/2000/svg">
<path fill-rule="evenodd" clip-rule="evenodd" d="M2.55269 7.07143V2.55074H1.02285V7.07143H2.55269Z" fill="black"/>
<path fill-rule="evenodd" clip-rule="evenodd" d="M3.39842 7.07143H4.92826V4.54672C4.92826 4.41189 4.93904 4.27706 4.97944 4.17925C5.08987 3.90959 5.34304 3.62936 5.7659 3.62936C6.32074 3.62936 6.5416 4.04442 6.5416 4.65247V7.07143H8.07144V4.48063C8.07144 3.0927 7.31729 2.445 6.30997 2.445C5.4831 2.445 5.12218 2.89707 4.92018 3.20638H4.93095V2.55075H3.40111C3.41996 2.97638 3.39842 7.07143 3.39842 7.07143Z" fill="black"/>
<path d="M2.7143 1.26786C2.7143 1.76097 2.31456 2.16071 1.82145 2.16071C1.32833 2.16071 0.928589 1.76097 0.928589 1.26786C0.928589 0.774746 1.32833 0.375 1.82145 0.375C2.31456 0.375 2.7143 0.774746 2.7143 1.26786Z" fill="black"/>
</svg>
