<svg width="150" height="50" viewBox="0 0 150 50" fill="none" xmlns="http://www.w3.org/2000/svg">
<rect width="150" height="50" fill="white"/>
<path d="M0 24.5791C0 28.602 1.2148 32.2183 1.8222 33.5235C1.8222 35.3371 1.8222 37.0272 2.85754 38.4698C3.89288 39.9125 6.54335 42.3444 9.64936 44.6526C12.7554 46.9609 14.9089 47.9913 16.9796 47.9913C19.0502 47.9913 21.0381 47.8265 26.5461 47.9913C32.0541 48.1562 36.444 45.7655 40.4197 43.2924C44.3954 40.8193 46.6731 36.615 47.2943 34.6365C47.9155 32.658 48.7438 30.3498 49.1993 28.701C49.6549 27.0523 48.7438 25.7333 48.7438 24.0845C48.7438 22.4358 48.9094 21.8587 48.7438 20.4161C48.5781 18.9734 47.2115 15.6759 46.6731 14.7279C46.1347 13.7799 46.6731 13.1204 46.0933 11.6364C45.5135 10.1526 38.7631 7.26729 36.9409 5.90707C35.1187 4.54686 34.4561 4.79416 33.2551 4.79416C32.0541 4.79416 26.4633 2.32105 21.0381 2.03252C15.6129 1.74399 12.4241 3.43395 9.64936 4.79416C6.87465 6.15438 3.52015 9.94649 2.31916 11.6364C1.11817 13.3264 0 19.5504 0 24.5791Z" fill="#BEF078"/>
<path d="M8.28266 23.2602C7.15621 28.8659 9.35942 33.6747 10.6018 35.3785C10.9607 35.9417 11.9685 37.0354 12.4654 37.563C13.0866 38.2225 18.9674 42.7566 27.9955 39.8713C37.0237 36.986 40.6681 29.0308 41.9519 20.4161C42.979 13.5243 40.8062 7.45967 39.5913 5.28882C37.1479 11.4304 22.3633 13.038 18.9674 13.7387C15.5715 14.4394 9.69073 16.253 8.28266 23.2602Z" fill="#76BC2F"/>
<path d="M6.75038 44.4878C7.26115 41.9597 9.02815 36.8211 11.6786 34.1007C14.1426 31.5717 15.254 30.7344 15.4473 30.6383C16.4688 28.6048 18.8266 24.167 20.5825 22.848C19.7957 24.0982 18.1888 27.0441 18.0563 28.8247C19.2159 28.124 22.1645 26.3351 24.6825 24.7853C27.7377 22.9047 35.7879 17.1403 36.6357 15.3338C36.6563 15.2812 36.6753 15.2303 36.6924 15.1813C36.6802 15.2284 36.6613 15.2793 36.6357 15.3338C35.856 17.3186 32.5922 21.828 30.3976 23.4663C28.1447 25.148 26.3942 26.3378 25.8006 26.7226C27.2639 26.6401 30.6792 26.2609 32.6339 25.4036C31.0325 26.2279 26.9437 28.0086 23.3987 28.5362C20.8724 29.5941 15.265 32.5838 13.0453 36.0792C10.8255 39.5745 9.35946 43.1078 9.35946 44.4878C9.35946 46.3426 6.54333 46.5075 6.75038 44.4878Z" fill="#4E7C24"/>
<path d="M11.5873 8.05488L9.48742 9.43803C9.35043 9.52822 9.41462 9.74039 9.57878 9.74039H11.6788C11.7703 9.74039 11.8444 9.66658 11.8444 9.57552V8.19237C11.8444 8.06094 11.6975 7.98234 11.5873 8.05488Z" fill="white"/>
<path d="M18.4302 10.728C18.6373 10.4017 19.5318 10.3983 20.7908 11.2226C19.7693 11.4287 18.0989 11.4699 18.4302 10.728Z" fill="white"/>
<path d="M16.6482 43.0135C16.8929 42.6575 18.1169 42.5083 19.938 43.1173C18.5643 43.4872 16.2828 43.8002 16.6482 43.0135Z" fill="white"/>
<path d="M20.3264 43.0863C20.3979 42.8848 20.8053 42.8342 21.4366 43.2468C20.9857 43.4225 20.2275 43.5372 20.3264 43.0863Z" fill="white"/>
<path d="M17.6221 15.7028L14.2771 17.2949C14.1681 17.3467 14.1385 17.4667 14.2109 17.5629L14.2109 17.5629C14.2833 17.6591 14.4303 17.695 14.5392 17.6432L17.8843 16.0511C17.9932 15.9993 18.0229 15.8793 17.9505 15.7831C17.8781 15.6869 17.7311 15.651 17.6221 15.7028Z" fill="#68A828"/>
<path d="M16.5486 16.9448L14.7605 17.7958C14.6515 17.8477 14.6219 17.9677 14.6943 18.0639L14.6943 18.0639C14.7667 18.16 14.9137 18.196 15.0226 18.1441L16.8108 17.2931C16.9197 17.2413 16.9493 17.1213 16.877 17.0251C16.8046 16.9289 16.6576 16.8929 16.5486 16.9448Z" fill="#68A828"/>
<path d="M16.0213 15.6786L13.7617 16.754C13.6528 16.8058 13.6231 16.9258 13.6955 17.022L13.6955 17.022C13.7679 17.1182 13.9149 17.1541 14.0238 17.1023L16.2834 16.0269C16.3923 15.975 16.422 15.855 16.3496 15.7588C16.2772 15.6627 16.1302 15.6267 16.0213 15.6786Z" fill="#68A828"/>
<path d="M19.6107 37.7393L16.2656 39.3314C16.1567 39.3832 16.127 39.5032 16.1994 39.5994L16.1994 39.5994C16.2718 39.6956 16.4188 39.7315 16.5278 39.6797L19.8728 38.0876C19.9818 38.0358 20.0114 37.9158 19.939 37.8196C19.8666 37.7234 19.7196 37.6875 19.6107 37.7393Z" fill="#68A828"/>
<path d="M18.97 38.8406L17.1819 39.6917C17.0729 39.7435 17.0433 39.8635 17.1157 39.9597L17.1157 39.9597C17.1881 40.0559 17.3351 40.0918 17.444 40.04L19.2322 39.1889C19.3411 39.1371 19.3707 39.0171 19.2983 38.9209C19.226 38.8247 19.079 38.7888 18.97 38.8406Z" fill="#68A828"/>
<path d="M17.6143 37.9042L15.3547 38.9796C15.2458 39.0315 15.2162 39.1515 15.2885 39.2476L15.2885 39.2476C15.3609 39.3438 15.5079 39.3798 15.6169 39.3279L17.8764 38.2525C17.9854 38.2007 18.015 38.0807 17.9426 37.9845C17.8702 37.8883 17.7232 37.8524 17.6143 37.9042Z" fill="#68A828"/>
<path d="M61.3053 25.1876C62.3622 25.1876 62.8906 25.4535 62.8906 25.9856C62.8906 26.6022 62.2832 26.9105 61.0684 26.9105C60.8011 26.9105 60.5096 26.8621 60.1938 26.7654C59.8415 27.0072 59.5682 27.3095 59.3738 27.6722C59.1916 28.0349 59.1004 28.5609 59.1004 29.2501C59.1004 29.9271 59.3677 30.4289 59.9022 30.7554C60.4489 31.0818 61.0866 31.245 61.8155 31.245C62.5566 31.245 63.1518 31.1301 63.6013 30.9005C64.0629 30.6586 64.4638 30.3987 64.8039 30.1206C65.1441 29.8425 65.4174 29.5886 65.6239 29.3589C65.8426 29.117 66.0005 28.9962 66.0977 28.9962C66.1948 28.9962 66.2739 29.0626 66.3346 29.1957C66.3953 29.3165 66.4257 29.4797 66.4257 29.6853C66.4257 30.6526 65.8851 31.505 64.8039 32.2425C63.7349 32.968 62.4533 33.3307 60.9591 33.3307C58.6267 33.3307 57.1142 32.6597 56.4218 31.3176C56.1789 30.8461 56.0574 30.2777 56.0574 29.6128C56.0574 27.8838 56.926 26.6747 58.6631 25.9856C57.7763 25.3689 57.3329 24.4379 57.3329 23.1926C57.3329 22.6001 57.4969 22.05 57.8249 21.5422C57.5212 21.2036 57.2722 20.8469 57.0778 20.4722C56.8956 20.0973 56.8045 19.8131 56.8045 19.6198C56.8045 19.2812 56.926 19.1119 57.1689 19.1119C57.339 19.1119 57.5455 19.2449 57.7885 19.5109C58.0436 19.7648 58.2501 19.9704 58.408 20.1276C58.566 20.2847 58.73 20.4116 58.9 20.5084C59.9326 19.8797 61.1473 19.5653 62.5444 19.5653C63.9414 19.5653 64.8708 19.9522 65.3324 20.7261C65.5024 21.0162 65.5875 21.3729 65.5875 21.7961C65.5875 22.4369 65.3081 22.9749 64.7493 23.4102C64.1904 23.8455 63.4555 24.0631 62.5444 24.0631C61.6333 24.0631 60.7829 23.7729 59.9933 23.1926C59.9811 23.2409 59.9751 23.2893 59.9751 23.3377V23.7367C59.9751 23.9543 60.0419 24.2142 60.1755 24.5165C60.3213 24.8067 60.4975 25.0485 60.704 25.242C60.8862 25.2057 61.0866 25.1876 61.3053 25.1876ZM63.5648 22.0681C63.5648 21.5966 63.1761 21.3608 62.3986 21.3608C61.6211 21.3608 60.9955 21.5966 60.5218 22.0681C61.1777 22.4671 61.8459 22.6666 62.5262 22.6666C63.2186 22.6666 63.5648 22.4671 63.5648 22.0681ZM75.397 30.3382C75.7128 30.1085 75.9983 29.8304 76.2534 29.504C76.5086 29.1654 76.7212 28.9962 76.8912 28.9962C77.0734 28.9962 77.1645 29.2621 77.1645 29.7942C77.1645 30.314 77.0127 30.8098 76.709 31.2813C76.4174 31.7407 76.0287 32.1276 75.5428 32.442C74.5466 33.0949 73.3683 33.4214 72.0077 33.4214C70.3556 33.4214 69.074 33.0103 68.1629 32.1881C67.2518 31.3659 66.7962 30.2233 66.7962 28.7604C66.7962 26.9588 67.2336 25.248 68.1082 23.6279C68.3998 23.0958 68.7278 22.6061 69.0922 22.1588C68.8128 21.8324 68.588 21.4938 68.418 21.1432C68.26 20.7805 68.1811 20.5084 68.1811 20.3271C68.1811 20.0006 68.3026 19.8374 68.5456 19.8374C68.7156 19.8494 68.91 19.9643 69.1287 20.182L69.6935 20.7261C69.8393 20.8711 69.9911 20.992 70.1491 21.0888C71.3517 20.0732 72.6455 19.5653 74.0304 19.5653C75.4274 19.5653 76.3324 19.9522 76.7454 20.7261C76.8912 21.0162 76.9641 21.3729 76.9641 21.7961C76.9641 22.4369 76.6847 22.9749 76.1259 23.4102C75.5671 23.8455 74.8139 24.0631 73.8664 24.0631C72.931 24.0631 71.9591 23.8696 70.9509 23.4828C70.0884 24.9457 69.6571 26.4752 69.6571 28.0712C69.6571 30.2838 70.5439 31.3901 72.3175 31.3901C73.4108 31.3901 74.4373 31.0395 75.397 30.3382ZM71.8255 22.3583C72.4451 22.5638 73.1193 22.6666 73.8481 22.6666C74.577 22.6666 74.9415 22.4671 74.9415 22.0681C74.9415 21.5966 74.6439 21.3608 74.0486 21.3608C73.2346 21.3608 72.4937 21.6933 71.8255 22.3583ZM89.1336 21.4878C89.1336 21.6208 88.9513 21.6873 88.5869 21.6873C88.4536 21.6873 88.2771 21.6691 88.0585 21.6329C87.8398 21.5966 87.4331 21.5422 86.8376 21.4696C86.2429 21.3971 85.6051 21.3608 84.9243 21.3608C84.2567 21.3608 83.6488 21.5422 83.1021 21.9049C82.5558 22.2555 82.0942 22.7089 81.7176 23.2651C81.3532 23.8212 81.0677 24.444 80.8612 25.1332C80.6668 25.8223 80.5697 26.4994 80.5697 27.1644C80.5697 28.3734 80.849 29.3165 81.4079 29.9937C81.9666 30.6707 82.7441 31.0093 83.7399 31.0093C85.538 31.0093 86.9171 30.3745 87.8762 29.105C88.1678 28.718 88.4047 28.2888 88.5869 27.8173C87.7007 27.7085 87.0198 27.382 86.546 26.838C86.0723 26.2818 85.8354 25.6047 85.8354 24.8067C85.8354 23.9966 86.0607 23.3558 86.5096 22.8843C86.9593 22.4127 87.5607 22.177 88.3136 22.177C89.0789 22.177 89.662 22.4671 90.0629 23.0475C90.4762 23.6157 90.6824 24.3352 90.6824 25.2057C90.6824 25.5079 90.6708 25.7921 90.646 26.0581C90.8647 25.9613 91.0469 25.8586 91.1926 25.7498C91.3384 25.641 91.4842 25.5866 91.63 25.5866C91.8735 25.5866 91.9944 25.6893 91.9944 25.8949C91.9944 26.318 91.8486 26.6868 91.5571 27.0012C91.278 27.3034 90.9011 27.5331 90.4273 27.6904C90.0629 29.4556 89.286 30.8521 88.0949 31.8798C86.9171 32.9075 85.3865 33.4214 83.503 33.4214C81.6204 33.4214 80.1505 32.8531 79.0937 31.7166C78.1704 30.713 77.7088 29.4253 77.7088 27.8536C77.7088 26.7896 77.8788 25.7618 78.219 24.7704C78.5713 23.779 79.0633 22.9024 79.695 22.1407C80.3388 21.379 81.1163 20.7684 82.0274 20.3089C82.9381 19.8494 83.9585 19.6198 85.0883 19.6198C86.2305 19.6198 87.1904 19.8192 87.9674 20.2182C88.7451 20.6172 89.1336 21.0404 89.1336 21.4878ZM88.5505 23.7729C88.2953 23.7729 88.1678 23.9785 88.1678 24.3896C88.1678 25.115 88.4594 25.641 89.0425 25.9674C89.0789 25.641 89.0971 25.3024 89.0971 24.9518C89.0971 24.1658 88.9149 23.7729 88.5505 23.7729ZM102.272 29.4496C102.272 30.5015 102.722 31.0274 103.621 31.0274C104.605 31.0274 105.267 30.6888 105.607 30.0118C105.729 29.7699 105.789 29.4616 105.789 29.0868C105.789 28.6999 105.698 28.3433 105.516 28.0168C105.212 27.4969 104.69 26.9225 103.949 26.2939C102.722 25.254 102.108 24.178 102.108 23.0656C102.108 21.9412 102.46 21.0767 103.165 20.4722C103.87 19.8676 104.678 19.5653 105.589 19.5653C106.5 19.5653 107.223 19.795 107.757 20.2545C108.291 20.7139 108.559 21.4031 108.559 22.322C108.559 22.9266 108.353 23.4525 107.939 23.8999C107.539 24.3472 107.004 24.6253 106.336 24.7342C106.64 24.9881 106.943 25.248 107.247 25.514C107.539 25.78 107.806 26.0701 108.049 26.3846C108.583 27.0979 108.851 27.9503 108.851 28.9418C108.851 29.6309 108.687 30.2536 108.359 30.8098C108.043 31.3659 107.624 31.8374 107.101 32.2244C106.591 32.5992 106.014 32.8893 105.37 33.0949C104.727 33.3005 104.125 33.4033 103.566 33.4033C102.376 33.4033 101.452 33.1312 100.796 32.5871C100.031 31.9705 99.6485 31.0818 99.6485 29.9211C99.6485 29.1594 99.8978 28.4218 100.396 27.7085C100.893 26.9951 101.422 26.6385 101.981 26.6385C102.418 26.6385 102.637 26.7714 102.637 27.0375C102.637 27.4243 102.576 27.8112 102.455 28.1982C102.333 28.5729 102.272 28.9901 102.272 29.4496ZM105.807 24.2989C106.5 23.6097 106.846 22.8903 106.846 22.1407C106.846 21.9109 106.724 21.7174 106.482 21.5603C106.214 21.4152 105.935 21.3427 105.643 21.3427C104.988 21.3427 104.514 21.5542 104.222 21.9775C104.368 22.4973 104.581 22.9387 104.86 23.3014C105.152 23.6641 105.467 23.9966 105.807 24.2989ZM115.526 25.7135C116.814 25.7135 118.004 25.7255 119.097 25.7498C119.668 23.4525 120.227 21.8565 120.774 20.9618C121.138 20.4419 121.502 20.0671 121.867 19.8374C122.013 19.7406 122.158 19.6923 122.304 19.6923C122.462 19.6923 122.541 19.9281 122.541 20.3996C122.541 20.8711 122.499 21.3668 122.413 21.8868C122.341 22.4066 122.244 23.0051 122.122 23.6823C121.721 25.9069 121.417 27.6843 121.211 29.0143C121.016 30.3443 120.919 31.6259 120.919 32.8592C120.919 33.1977 120.677 33.367 120.19 33.367C119.425 33.367 118.902 33.2219 118.623 32.9317C118.344 32.6294 118.204 32.0914 118.204 31.3176C118.204 30.5316 118.362 29.2984 118.678 27.6178C117.342 27.5573 116.497 27.5271 116.145 27.5271H115.398C115.265 27.5271 115.131 27.5331 114.997 27.5453C114.451 29.6248 114.177 31.2692 114.177 32.4783C114.177 33.1916 113.479 33.5483 112.082 33.5483C111.778 33.5483 111.595 33.3972 111.535 33.0949C111.486 32.7805 111.462 32.2788 111.462 31.5896C111.462 30.8883 111.681 29.6369 112.118 27.8354C111.377 27.9443 110.837 27.9987 110.496 27.9987C110.338 27.9987 110.259 27.9382 110.259 27.8173C110.259 27.5513 110.454 27.249 110.843 26.9105C111.243 26.5719 111.827 26.2999 112.592 26.0944C113.042 24.5467 113.491 23.2772 113.94 22.2858C112.628 22.3099 111.663 22.5638 111.043 23.0475C110.848 23.1926 110.691 23.3256 110.569 23.4465C110.447 23.5553 110.338 23.6097 110.241 23.6097C110.156 23.6097 110.071 23.5372 109.986 23.3921C109.901 23.247 109.859 23.0535 109.859 22.8117C109.859 21.9291 110.606 21.258 112.1 20.7986C113.29 20.4359 114.675 20.2484 116.254 20.2364H116.291C116.376 20.2364 116.491 20.2847 116.637 20.3815C116.795 20.4782 116.874 20.6354 116.874 20.853C116.874 21.0706 116.832 21.3185 116.746 21.5966C116.674 21.8625 116.57 22.062 116.437 22.1951C116.364 22.7633 116.06 23.9362 115.526 25.7135ZM135.33 21.4878C135.33 21.6208 135.147 21.6873 134.783 21.6873C134.65 21.6873 134.473 21.6691 134.254 21.6329C134.036 21.5966 133.629 21.5422 133.034 21.4696C132.438 21.3971 131.8 21.3608 131.12 21.3608C130.452 21.3608 129.845 21.5422 129.298 21.9049C128.751 22.2555 128.29 22.7089 127.913 23.2651C127.549 23.8212 127.263 24.444 127.057 25.1332C126.862 25.8223 126.765 26.4994 126.765 27.1644C126.765 28.3734 127.044 29.3165 127.603 29.9937C128.163 30.6707 128.939 31.0093 129.936 31.0093C131.734 31.0093 133.112 30.3745 134.072 29.105C134.364 28.718 134.601 28.2888 134.783 27.8173C133.896 27.7085 133.216 27.382 132.742 26.838C132.268 26.2818 132.031 25.6047 132.031 24.8067C132.031 23.9966 132.256 23.3558 132.706 22.8843C133.155 22.4127 133.757 22.177 134.51 22.177C135.275 22.177 135.858 22.4671 136.259 23.0475C136.672 23.6157 136.878 24.3352 136.878 25.2057C136.878 25.5079 136.866 25.7921 136.842 26.0581C137.061 25.9613 137.243 25.8586 137.389 25.7498C137.534 25.641 137.68 25.5866 137.826 25.5866C138.069 25.5866 138.19 25.6893 138.19 25.8949C138.19 26.318 138.045 26.6868 137.753 27.0012C137.474 27.3034 137.097 27.5331 136.623 27.6904C136.259 29.4556 135.481 30.8521 134.291 31.8798C133.112 32.9075 131.582 33.4214 129.699 33.4214C127.816 33.4214 126.346 32.8531 125.289 31.7166C124.366 30.713 123.904 29.4253 123.904 27.8536C123.904 26.7896 124.074 25.7618 124.415 24.7704C124.767 23.779 125.259 22.9024 125.891 22.1407C126.534 21.379 127.312 20.7684 128.223 20.3089C129.134 19.8494 130.155 19.6198 131.284 19.6198C132.426 19.6198 133.386 19.8192 134.163 20.2182C134.941 20.6172 135.33 21.0404 135.33 21.4878ZM134.746 23.7729C134.491 23.7729 134.364 23.9785 134.364 24.3896C134.364 25.115 134.655 25.641 135.238 25.9674C135.275 25.641 135.293 25.3024 135.293 24.9518C135.293 24.1658 135.111 23.7729 134.746 23.7729ZM142.266 32.4783C142.266 33.1916 141.566 33.5483 140.17 33.5483C139.866 33.5483 139.684 33.3972 139.623 33.0949C139.574 32.7805 139.55 32.3453 139.55 31.7891C139.55 30.6163 139.787 29.1654 140.261 27.4364C141.05 24.583 141.894 22.9024 142.794 22.3946C142.915 22.322 143.049 22.2858 143.195 22.2858C143.341 22.2858 143.413 22.5215 143.413 22.9931C143.413 23.4646 143.389 23.8818 143.341 24.2445C143.243 24.9699 143.067 25.9069 142.812 27.0556C142.569 28.2042 142.448 28.8812 142.448 29.0868L142.266 32.4783ZM143.505 27.5997C143.505 27.4425 143.589 27.3397 143.76 27.2914C143.942 27.243 144.166 27.2007 144.434 27.1644C144.701 27.116 144.992 27.0495 145.309 26.9649C145.624 26.8802 145.916 26.723 146.183 26.4934C146.803 25.9613 147.113 25.0726 147.113 23.8273C147.113 23.0294 146.839 22.4187 146.293 21.9956C145.757 21.5724 144.981 21.3608 143.96 21.3608C142.951 21.3608 142.004 21.5724 141.118 21.9956C140.79 22.1527 140.491 22.2978 140.225 22.4309C139.97 22.5638 139.733 22.6304 139.514 22.6304C139.295 22.6304 139.186 22.5638 139.186 22.4309C139.186 22.2253 139.386 21.8868 139.787 21.4152C140.188 20.98 140.819 20.5749 141.682 20.2001C142.557 19.8253 143.474 19.6379 144.434 19.6379C146.244 19.6258 147.653 20.0489 148.661 20.9074C149.536 21.657 149.973 22.6304 149.973 23.8273C149.973 25.0122 149.542 26.0762 148.68 27.0193C147.817 27.9503 146.736 28.4158 145.436 28.4158C144.148 28.4158 143.505 28.1438 143.505 27.5997Z" fill="#737373"/>
</svg>
