<svg xmlns="http://www.w3.org/2000/svg" width="150" height="46" fill="none" viewBox="0 0 150 46"><path fill="#BEF078" d="M0 22.5796C0 26.6025 1.2148 30.2188 1.8222 31.524C1.8222 33.3376 1.8222 35.0277 2.85754 36.4703C3.89288 37.913 6.54335 40.3449 9.64936 42.6531C12.7554 44.9614 14.9089 45.9918 16.9796 45.9918C19.0502 45.9918 21.0381 45.827 26.5461 45.9918C32.0541 46.1567 36.444 43.766 40.4197 41.2929C44.3954 38.8198 46.6731 34.6155 47.2943 32.637C47.9155 30.6585 48.7438 28.3503 49.1993 26.7015C49.6549 25.0528 48.7438 23.7338 48.7438 22.085C48.7438 20.4363 48.9094 19.8592 48.7438 18.4166C48.5781 16.9739 47.2115 13.6764 46.6731 12.7284C46.1347 11.7804 46.6731 11.1209 46.0933 9.63691C45.5135 8.15306 38.7631 5.26778 36.9409 3.90756C35.1187 2.54735 34.4561 2.79465 33.2551 2.79465C32.0541 2.79465 26.4633 0.321534 21.0381 0.0330036C15.6129 -0.255526 12.4241 1.43444 9.64936 2.79465C6.87465 4.15487 3.52015 7.94698 2.31916 9.63691C1.11817 11.3269 0 17.5509 0 22.5796Z"/><path fill="#76BC2F" d="M8.28266 21.2604C7.15621 26.8662 9.35942 31.675 10.6018 33.3787C10.9607 33.942 11.9685 35.0357 12.4654 35.5633C13.0866 36.2228 18.9674 40.7568 27.9955 37.8715C37.0237 34.9862 40.6681 27.031 41.9519 18.4163C42.979 11.5246 40.8062 5.45992 39.5913 3.28906C37.1479 9.43068 22.3633 11.0382 18.9674 11.7389C15.5715 12.4396 9.69073 14.2533 8.28266 21.2604Z"/><path fill="#4E7C24" d="M6.75038 42.4881C7.26115 39.96 9.02815 34.8214 11.6786 32.101C14.1426 29.572 15.254 28.7347 15.4473 28.6386C16.4688 26.6051 18.8266 22.1673 20.5825 20.8483C19.7957 22.0985 18.1888 25.0444 18.0563 26.825C19.2159 26.1243 22.1645 24.3354 24.6825 22.7856C27.7377 20.905 35.7879 15.1406 36.6357 13.3341C36.6563 13.2815 36.6753 13.2306 36.6924 13.1816C36.6802 13.2287 36.6613 13.2796 36.6357 13.3341C35.856 15.3189 32.5922 19.8283 30.3976 21.4666C28.1447 23.1483 26.3942 24.3381 25.8006 24.7229C27.2639 24.6404 30.6792 24.2612 32.6339 23.4039C31.0325 24.2282 26.9437 26.0089 23.3987 26.5365C20.8724 27.5944 15.265 30.5841 13.0453 34.0795C10.8255 37.5748 9.35946 41.1081 9.35946 42.4881C9.35946 44.3429 6.54333 44.5078 6.75038 42.4881Z"/><path fill="#fff" d="M11.5871 6.05549L9.48718 7.43864C9.35018 7.52883 9.41438 7.741 9.57854 7.741H11.6785C11.7701 7.741 11.8442 7.66719 11.8442 7.57613V6.19298C11.8442 6.06155 11.6973 5.98295 11.5871 6.05549Z"/><path fill="#fff" d="M18.4302 8.72843C18.6373 8.40214 19.5318 8.39868 20.7908 9.22305C19.7693 9.42914 18.0989 9.47036 18.4302 8.72843Z"/><path fill="#fff" d="M16.6482 41.0138C16.8929 40.6578 18.1169 40.5086 19.938 41.1176C18.5643 41.4875 16.2828 41.8005 16.6482 41.0138Z"/><path fill="#fff" d="M20.3264 41.087C20.3979 40.8854 20.8053 40.8349 21.4366 41.2475C20.9857 41.4232 20.2275 41.5378 20.3264 41.087Z"/><path fill="#68A828" d="M17.6221 13.7033L14.2771 15.2953C14.1681 15.3471 14.1385 15.4671 14.2109 15.5633L14.2109 15.5633C14.2833 15.6595 14.4303 15.6954 14.5392 15.6436L17.8843 14.0516C17.9932 13.9997 18.0229 13.8797 17.9505 13.7835C17.8781 13.6874 17.7311 13.6514 17.6221 13.7033Z"/><path fill="#68A828" d="M16.5486 14.9452L14.7605 15.7963C14.6515 15.8481 14.6219 15.9681 14.6943 16.0643L14.6943 16.0643C14.7667 16.1605 14.9137 16.1964 15.0226 16.1446L16.8108 15.2935C16.9197 15.2417 16.9493 15.1217 16.877 15.0255C16.8046 14.9293 16.6576 14.8934 16.5486 14.9452Z"/><path fill="#68A828" d="M16.0213 13.6789L13.7617 14.7543C13.6528 14.8061 13.6231 14.9261 13.6955 15.0223L13.6955 15.0223C13.7679 15.1185 13.9149 15.1544 14.0238 15.1026L16.2834 14.0272C16.3923 13.9753 16.422 13.8553 16.3496 13.7591C16.2772 13.663 16.1302 13.627 16.0213 13.6789Z"/><path fill="#68A828" d="M19.6107 35.7399L16.2656 37.3319C16.1567 37.3838 16.127 37.5038 16.1994 37.5999L16.1994 37.5999C16.2718 37.6961 16.4188 37.7321 16.5278 37.6802L19.8728 36.0882C19.9818 36.0363 20.0114 35.9163 19.939 35.8202C19.8666 35.724 19.7196 35.688 19.6107 35.7399Z"/><path fill="#68A828" d="M18.97 36.8412L17.1819 37.6923C17.0729 37.7441 17.0433 37.8641 17.1157 37.9603L17.1157 37.9603C17.1881 38.0565 17.3351 38.0924 17.444 38.0406L19.2322 37.1895C19.3411 37.1377 19.3707 37.0177 19.2983 36.9215C19.226 36.8253 19.079 36.7894 18.97 36.8412Z"/><path fill="#68A828" d="M17.6143 35.9044L15.3547 36.9799C15.2458 37.0317 15.2162 37.1517 15.2885 37.2479L15.2885 37.2479C15.3609 37.3441 15.5079 37.38 15.6169 37.3282L17.8764 36.2528C17.9854 36.2009 18.015 36.0809 17.9426 35.9847C17.8702 35.8885 17.7232 35.8526 17.6143 35.9044Z"/><path fill="#fff" d="M61.3053 23.1879C62.3622 23.1879 62.8906 23.4539 62.8906 23.9859C62.8906 24.6026 62.2832 24.9109 61.0684 24.9109C60.8011 24.9109 60.5096 24.8625 60.1938 24.7658C59.8415 25.0076 59.5682 25.3099 59.3738 25.6726C59.1916 26.0353 59.1004 26.5613 59.1004 27.2504C59.1004 27.9275 59.3677 28.4293 59.9022 28.7557C60.4489 29.0822 61.0866 29.2454 61.8155 29.2454C62.5566 29.2454 63.1518 29.1305 63.6013 28.9008C64.0629 28.659 64.4638 28.399 64.8039 28.121C65.1441 27.8428 65.4174 27.5889 65.6239 27.3593C65.8426 27.1174 66.0005 26.9965 66.0977 26.9965C66.1948 26.9965 66.2739 27.063 66.3346 27.196C66.3953 27.3169 66.4257 27.4801 66.4257 27.6857C66.4257 28.6529 65.8851 29.5053 64.8039 30.2429C63.7349 30.9684 62.4533 31.3311 60.9591 31.3311C58.6267 31.3311 57.1142 30.66 56.4218 29.318C56.1789 28.8464 56.0574 28.2781 56.0574 27.6132C56.0574 25.8841 56.926 24.6751 58.6631 23.9859C57.7763 23.3693 57.3329 22.4382 57.3329 21.1929C57.3329 20.6005 57.4969 20.0504 57.8249 19.5426C57.5212 19.204 57.2722 18.8473 57.0778 18.4725C56.8956 18.0977 56.8045 17.8135 56.8045 17.6201C56.8045 17.2815 56.926 17.1123 57.1689 17.1123C57.339 17.1123 57.5455 17.2453 57.7885 17.5113C58.0436 17.7652 58.2501 17.9707 58.408 18.1279C58.566 18.2851 58.73 18.412 58.9 18.5088C59.9326 17.88 61.1473 17.5657 62.5444 17.5657C63.9414 17.5657 64.8708 17.9526 65.3324 18.7264C65.5024 19.0166 65.5875 19.3732 65.5875 19.7965C65.5875 20.4372 65.3081 20.9753 64.7493 21.4106C64.1904 21.8458 63.4555 22.0635 62.5444 22.0635C61.6333 22.0635 60.7829 21.7733 59.9933 21.1929C59.9811 21.2413 59.9751 21.2896 59.9751 21.338V21.737C59.9751 21.9547 60.0419 22.2146 60.1755 22.5169C60.3213 22.8071 60.4975 23.0489 60.704 23.2423C60.8862 23.2061 61.0866 23.1879 61.3053 23.1879ZM63.5648 20.0685C63.5648 19.597 63.1761 19.3612 62.3986 19.3612C61.6211 19.3612 60.9955 19.597 60.5218 20.0685C61.1777 20.4675 61.8459 20.667 62.5262 20.667C63.2186 20.667 63.5648 20.4675 63.5648 20.0685ZM75.397 28.3386C75.7128 28.1089 75.9983 27.8308 76.2534 27.5043C76.5086 27.1658 76.7212 26.9965 76.8912 26.9965C77.0734 26.9965 77.1645 27.2625 77.1645 27.7945C77.1645 28.3144 77.0127 28.8101 76.709 29.2817C76.4174 29.7411 76.0287 30.128 75.5428 30.4424C74.5466 31.0953 73.3683 31.4218 72.0077 31.4218C70.3556 31.4218 69.074 31.0106 68.1629 30.1885C67.2518 29.3663 66.7962 28.2237 66.7962 26.7608C66.7962 24.9592 67.2336 23.2484 68.1082 21.6282C68.3998 21.0962 68.7278 20.6065 69.0922 20.1592C68.8128 19.8327 68.588 19.4942 68.418 19.1436C68.26 18.7808 68.1811 18.5088 68.1811 18.3274C68.1811 18.001 68.3026 17.8378 68.5456 17.8378C68.7156 17.8498 68.91 17.9647 69.1287 18.1823L69.6935 18.7264C69.8393 18.8715 69.9911 18.9924 70.1491 19.0891C71.3517 18.0735 72.6455 17.5657 74.0304 17.5657C75.4274 17.5657 76.3324 17.9526 76.7454 18.7264C76.8912 19.0166 76.9641 19.3732 76.9641 19.7965C76.9641 20.4372 76.6847 20.9753 76.1259 21.4106C75.5671 21.8458 74.8139 22.0635 73.8664 22.0635C72.931 22.0635 71.9591 21.87 70.9509 21.4831C70.0884 22.9461 69.6571 24.4756 69.6571 26.0716C69.6571 28.2842 70.5439 29.3905 72.3175 29.3905C73.4108 29.3905 74.4373 29.0398 75.397 28.3386ZM71.8255 20.3587C72.4451 20.5642 73.1193 20.667 73.8481 20.667C74.577 20.667 74.9415 20.4675 74.9415 20.0685C74.9415 19.597 74.6439 19.3612 74.0486 19.3612C73.2346 19.3612 72.4937 19.6937 71.8255 20.3587ZM89.1336 19.4881C89.1336 19.6211 88.9513 19.6876 88.5869 19.6876C88.4536 19.6876 88.2771 19.6695 88.0585 19.6332C87.8398 19.597 87.4331 19.5426 86.8376 19.47C86.2429 19.3975 85.6051 19.3612 84.9243 19.3612C84.2567 19.3612 83.6488 19.5426 83.1021 19.9053C82.5558 20.2559 82.0942 20.7093 81.7176 21.2655C81.3532 21.8216 81.0677 22.4443 80.8612 23.1335C80.6668 23.8227 80.5697 24.4998 80.5697 25.1648C80.5697 26.3738 80.849 27.3169 81.4079 27.994C81.9666 28.6711 82.7441 29.0096 83.7399 29.0096C85.538 29.0096 86.9171 28.3749 87.8762 27.1053C88.1678 26.7184 88.4047 26.2892 88.5869 25.8177C87.7007 25.7089 87.0198 25.3824 86.546 24.8383C86.0723 24.2821 85.8354 23.6051 85.8354 22.8071C85.8354 21.997 86.0607 21.3562 86.5096 20.8846C86.9593 20.4131 87.5607 20.1773 88.3136 20.1773C89.0789 20.1773 89.662 20.4675 90.0629 21.0479C90.4762 21.6161 90.6824 22.3355 90.6824 23.2061C90.6824 23.5083 90.6708 23.7924 90.646 24.0585C90.8647 23.9617 91.0469 23.859 91.1926 23.7502C91.3384 23.6413 91.4842 23.5869 91.63 23.5869C91.8735 23.5869 91.9944 23.6896 91.9944 23.8952C91.9944 24.3184 91.8486 24.6871 91.5571 25.0015C91.278 25.3038 90.9011 25.5335 90.4273 25.6907C90.0629 27.456 89.286 28.8524 88.0949 29.8802C86.9171 30.9078 85.3865 31.4218 83.503 31.4218C81.6204 31.4218 80.1505 30.8534 79.0937 29.717C78.1704 28.7134 77.7088 27.4257 77.7088 25.8539C77.7088 24.7899 77.8788 23.7622 78.219 22.7708C78.5713 21.7793 79.0633 20.9028 79.695 20.141C80.3388 19.3793 81.1163 18.7687 82.0274 18.3093C82.9381 17.8498 83.9585 17.6201 85.0883 17.6201C86.2305 17.6201 87.1904 17.8196 87.9674 18.2186C88.7451 18.6176 89.1336 19.0408 89.1336 19.4881ZM88.5505 21.7733C88.2953 21.7733 88.1678 21.9788 88.1678 22.3899C88.1678 23.1154 88.4594 23.6413 89.0425 23.9678C89.0789 23.6413 89.0971 23.3028 89.0971 22.9522C89.0971 22.1662 88.9149 21.7733 88.5505 21.7733ZM102.272 27.4499C102.272 28.5018 102.722 29.0278 103.621 29.0278C104.605 29.0278 105.267 28.6892 105.607 28.0122C105.729 27.7703 105.789 27.462 105.789 27.0872C105.789 26.7002 105.698 26.3436 105.516 26.0172C105.212 25.4972 104.69 24.9229 103.949 24.2942C102.722 23.2544 102.108 22.1783 102.108 21.066C102.108 19.9416 102.46 19.077 103.165 18.4725C103.87 17.8679 104.678 17.5657 105.589 17.5657C106.5 17.5657 107.223 17.7954 107.757 18.2549C108.291 18.7143 108.559 19.4035 108.559 20.3224C108.559 20.9269 108.353 21.4529 107.939 21.9003C107.539 22.3476 107.004 22.6257 106.336 22.7345C106.64 22.9884 106.943 23.2484 107.247 23.5144C107.539 23.7803 107.806 24.0705 108.049 24.3849C108.583 25.0982 108.851 25.9506 108.851 26.9421C108.851 27.6313 108.687 28.2539 108.359 28.8101C108.043 29.3663 107.624 29.8378 107.101 30.2248C106.591 30.5995 106.014 30.8897 105.37 31.0953C104.727 31.3008 104.125 31.4036 103.566 31.4036C102.376 31.4036 101.452 31.1316 100.796 30.5875C100.031 29.9709 99.6485 29.0822 99.6485 27.9215C99.6485 27.1598 99.8978 26.4222 100.396 25.7089C100.893 24.9954 101.422 24.6388 101.981 24.6388C102.418 24.6388 102.637 24.7718 102.637 25.0378C102.637 25.4247 102.576 25.8116 102.455 26.1985C102.333 26.5733 102.272 26.9904 102.272 27.4499ZM105.807 22.2993C106.5 21.6101 106.846 20.8907 106.846 20.141C106.846 19.9113 106.724 19.7178 106.482 19.5607C106.214 19.4156 105.935 19.3431 105.643 19.3431C104.988 19.3431 104.514 19.5546 104.222 19.9778C104.368 20.4977 104.581 20.939 104.86 21.3018C105.152 21.6645 105.467 21.997 105.807 22.2993ZM115.526 23.7139C116.814 23.7139 118.004 23.7259 119.097 23.7502C119.668 21.4529 120.227 19.8569 120.774 18.9622C121.138 18.4423 121.502 18.0674 121.867 17.8378C122.013 17.741 122.158 17.6927 122.304 17.6927C122.462 17.6927 122.541 17.9284 122.541 18.4C122.541 18.8715 122.499 19.3672 122.413 19.8871C122.341 20.407 122.244 21.0055 122.122 21.6826C121.721 23.9073 121.417 25.6846 121.211 27.0147C121.016 28.3446 120.919 29.6263 120.919 30.8595C120.919 31.198 120.677 31.3673 120.19 31.3673C119.425 31.3673 118.902 31.2223 118.623 30.9321C118.344 30.6298 118.204 30.0917 118.204 29.318C118.204 28.532 118.362 27.2987 118.678 25.6182C117.342 25.5577 116.497 25.5275 116.145 25.5275H115.398C115.265 25.5275 115.131 25.5335 114.997 25.5456C114.451 27.6252 114.177 29.2696 114.177 30.4787C114.177 31.192 113.479 31.5487 112.082 31.5487C111.778 31.5487 111.595 31.3975 111.535 31.0953C111.486 30.7809 111.462 30.2792 111.462 29.59C111.462 28.8887 111.681 27.6373 112.118 25.8358C111.377 25.9446 110.837 25.999 110.496 25.999C110.338 25.999 110.259 25.9385 110.259 25.8177C110.259 25.5517 110.454 25.2494 110.843 24.9109C111.243 24.5723 111.827 24.3003 112.592 24.0947C113.042 22.5471 113.491 21.2775 113.94 20.2861C112.628 20.3103 111.663 20.5642 111.043 21.0479C110.848 21.1929 110.691 21.3259 110.569 21.4469C110.447 21.5557 110.338 21.6101 110.241 21.6101C110.156 21.6101 110.071 21.5375 109.986 21.3924C109.901 21.2474 109.859 21.0539 109.859 20.8121C109.859 19.9294 110.606 19.2584 112.1 18.799C113.29 18.4362 114.675 18.2488 116.254 18.2367H116.291C116.376 18.2367 116.491 18.2851 116.637 18.3818C116.795 18.4785 116.874 18.6357 116.874 18.8534C116.874 19.071 116.832 19.3188 116.746 19.597C116.674 19.8629 116.57 20.0624 116.437 20.1955C116.364 20.7637 116.06 21.9365 115.526 23.7139ZM135.33 19.4881C135.33 19.6211 135.147 19.6876 134.783 19.6876C134.65 19.6876 134.473 19.6695 134.254 19.6332C134.036 19.597 133.629 19.5426 133.034 19.47C132.438 19.3975 131.8 19.3612 131.12 19.3612C130.452 19.3612 129.845 19.5426 129.298 19.9053C128.751 20.2559 128.29 20.7093 127.913 21.2655C127.549 21.8216 127.263 22.4443 127.057 23.1335C126.862 23.8227 126.765 24.4998 126.765 25.1648C126.765 26.3738 127.044 27.3169 127.603 27.994C128.163 28.6711 128.939 29.0096 129.936 29.0096C131.734 29.0096 133.112 28.3749 134.072 27.1053C134.364 26.7184 134.601 26.2892 134.783 25.8177C133.896 25.7089 133.216 25.3824 132.742 24.8383C132.268 24.2821 132.031 23.6051 132.031 22.8071C132.031 21.997 132.256 21.3562 132.706 20.8846C133.155 20.4131 133.757 20.1773 134.51 20.1773C135.275 20.1773 135.858 20.4675 136.259 21.0479C136.672 21.6161 136.878 22.3355 136.878 23.2061C136.878 23.5083 136.866 23.7924 136.842 24.0585C137.061 23.9617 137.243 23.859 137.389 23.7502C137.534 23.6413 137.68 23.5869 137.826 23.5869C138.069 23.5869 138.19 23.6896 138.19 23.8952C138.19 24.3184 138.045 24.6871 137.753 25.0015C137.474 25.3038 137.097 25.5335 136.623 25.6907C136.259 27.456 135.481 28.8524 134.291 29.8802C133.112 30.9078 131.582 31.4218 129.699 31.4218C127.816 31.4218 126.346 30.8534 125.289 29.717C124.366 28.7134 123.904 27.4257 123.904 25.8539C123.904 24.7899 124.074 23.7622 124.415 22.7708C124.767 21.7793 125.259 20.9028 125.891 20.141C126.534 19.3793 127.312 18.7687 128.223 18.3093C129.134 17.8498 130.155 17.6201 131.284 17.6201C132.426 17.6201 133.386 17.8196 134.163 18.2186C134.941 18.6176 135.33 19.0408 135.33 19.4881ZM134.746 21.7733C134.491 21.7733 134.364 21.9788 134.364 22.3899C134.364 23.1154 134.655 23.6413 135.238 23.9678C135.275 23.6413 135.293 23.3028 135.293 22.9522C135.293 22.1662 135.111 21.7733 134.746 21.7733ZM142.266 30.4787C142.266 31.192 141.566 31.5487 140.17 31.5487C139.866 31.5487 139.684 31.3975 139.623 31.0953C139.574 30.7809 139.55 30.3456 139.55 29.7895C139.55 28.6167 139.787 27.1658 140.261 25.4368C141.05 22.5833 141.894 20.9028 142.794 20.395C142.915 20.3224 143.049 20.2861 143.195 20.2861C143.341 20.2861 143.413 20.5219 143.413 20.9934C143.413 21.465 143.389 21.8821 143.341 22.2448C143.243 22.9703 143.067 23.9073 142.812 25.056C142.569 26.2046 142.448 26.8816 142.448 27.0872L142.266 30.4787ZM143.505 25.6C143.505 25.4428 143.589 25.34 143.76 25.2917C143.942 25.2433 144.166 25.201 144.434 25.1648C144.701 25.1164 144.992 25.0499 145.309 24.9653C145.624 24.8806 145.916 24.7234 146.183 24.4937C146.803 23.9617 147.113 23.073 147.113 21.8277C147.113 21.0297 146.839 20.4191 146.293 19.996C145.757 19.5727 144.981 19.3612 143.96 19.3612C142.951 19.3612 142.004 19.5727 141.118 19.996C140.79 20.1531 140.491 20.2982 140.225 20.4312C139.97 20.5642 139.733 20.6307 139.514 20.6307C139.295 20.6307 139.186 20.5642 139.186 20.4312C139.186 20.2256 139.386 19.8871 139.787 19.4156C140.188 18.9803 140.819 18.5752 141.682 18.2005C142.557 17.8256 143.474 17.6383 144.434 17.6383C146.244 17.6261 147.653 18.0493 148.661 18.9078C149.536 19.6574 149.973 20.6307 149.973 21.8277C149.973 23.0126 149.542 24.0766 148.68 25.0197C147.817 25.9506 146.736 26.4162 145.436 26.4162C144.148 26.4162 143.505 26.1441 143.505 25.6Z"/></svg>