<svg width="15" height="15" viewBox="0 0 15 15" fill="none" xmlns="http://www.w3.org/2000/svg">
<path fill-rule="evenodd" clip-rule="evenodd" d="M11.3359 6.44491C11.3359 9.29245 9.08025 11.6008 6.29774 11.6008C3.51522 11.6008 1.25955 9.29245 1.25955 6.44491C1.25955 3.59737 3.51522 1.28898 6.29774 1.28898C9.08025 1.28898 11.3359 3.59737 11.3359 6.44491ZM10.4685 11.274C9.35766 12.2795 7.89734 12.8898 6.29774 12.8898C2.81959 12.8898 0 10.0043 0 6.44491C0 2.88548 2.81959 0 6.29774 0C9.77588 0 12.5955 2.88548 12.5955 6.44491C12.5955 7.90284 12.1224 9.2477 11.3249 10.3275L14.8155 13.8998C15.0615 14.1515 15.0615 14.5595 14.8155 14.8112C14.5696 15.0629 14.1709 15.0629 13.9249 14.8112L10.4685 11.274Z" fill="#262626"/>
</svg>
