<svg xmlns="http://www.w3.org/2000/svg" width="26" height="26" fill="none" viewBox="0 0 26 26"><path fill="#76BC2F" d="M24.925 0.39999C24.8664 0.409365 24.8102 0.428115 24.7563 0.45624L0.756272 10.7687C0.54299 10.8625 0.40471 11.0734 0.400022 11.3055C0.395335 11.5398 0.528928 11.7531 0.737522 11.8562L9.68127 16.3187L14.1438 25.2625C14.2469 25.4711 14.4602 25.6047 14.6946 25.6C14.9266 25.5953 15.1375 25.457 15.2313 25.2437L25.5438 1.24374C25.6328 1.04686 25.6094 0.814833 25.4805 0.641396C25.3539 0.465615 25.1406 0.374208 24.925 0.39999ZM22.375 2.78124L10 15.1562L2.42502 11.3687L22.375 2.78124ZM23.2188 3.62499L14.6313 23.575L10.8438 16L23.2188 3.62499Z"/></svg>