<svg xmlns="http://www.w3.org/2000/svg" width="14" height="14" fill="none" viewBox="0 0 14 14"><path fill="#262626" d="M12.6081 2.08566L12.3795 1.85709C11.6367 1.11423 10.6081 0.714233 9.63669 0.714233C8.66526 0.714233 7.75097 1.05709 7.00812 1.7428C6.20812 1.05709 5.23669 0.714233 4.3224 0.714233C3.29383 0.714233 2.3224 1.11423 1.5224 1.85709L1.29383 2.08566C-0.191886 3.57138 -0.249029 5.97138 1.17954 7.51423C1.23669 7.57138 6.95097 13.2857 6.95097 13.2857L12.6081 7.62852C12.6653 7.57138 12.6653 7.57138 12.7224 7.51423C14.151 5.97138 14.0938 3.57138 12.6081 2.08566ZM11.9224 6.59995C11.8653 6.65709 6.95097 11.5714 6.95097 11.5714C6.95097 11.5714 2.03669 6.65709 1.97954 6.59995C1.00811 5.51423 1.06526 3.85709 2.09383 2.82852L2.26526 2.65709C2.66526 2.25709 3.06526 1.97138 3.57954 1.85709C4.55097 1.62852 5.46526 1.85709 6.15097 2.42852C6.20812 2.48566 6.95097 3.22852 6.95097 3.22852C6.95097 3.22852 7.69383 2.48566 7.75097 2.42852C8.26526 1.97138 8.89383 1.7428 9.57954 1.7428C10.3224 1.7428 11.0081 2.02852 11.5224 2.5428L11.751 2.77138C12.8367 3.85709 12.8938 5.51423 11.9224 6.59995Z"/></svg>